# xmcd CD database file
#
# Track frame offsets:
#	150
#	20914
#	42909
#	69817
#	86601
#	105639
#	134042
#	150730
#	172007
#	188713
#	200985
#	229795
#	252390
#	270970
#
# Disc length: 4076 seconds
#
# Revision: 3
# Processed by: cddbd v1.5.2PL0 Copyright (c) Steve Scherf et al.
# Submitted via: CDex 1.82
#
DISCID=c60fea0e
DTITLE=Van Morrison - Three Chords and The Truth
DYEAR=2019
DGENRE=Blues
TTITLE0=March Winds In February
TTITLE1=Fame Will Eat The Soul
TTITLE2=Dark Night Of The Soul
TTITLE3=In Search Of Grace
TTITLE4=Nobody In Charge
TTITLE5=You Don't Understand
TTITLE6=Read Between The Lines
TTITLE7=Does Love Conquer All?
TTITLE8=Early Days
TTITLE9=If We Wait For Mountains
TTITLE10=Up On Broadway
TTITLE11=Three Chords And The Truth
TTITLE12=Bags Under My Eyes
TTITLE13=Days Gone By
EXTD=YEAR: 2019
EXTT0=
EXTT1=
EXTT2=
EXTT3=
EXTT4=
EXTT5=
EXTT6=
EXTT7=
EXTT8=
EXTT9=
EXTT10=
EXTT11=
EXTT12=
EXTT13=
PLAYORDER=
